<svg xmlns="http://www.w3.org/2000/svg" xmlns:xlink="http://www.w3.org/1999/xlink" viewBox="0 0 48 60" version="1.1" x="0px" y="0px"><title>neural network 02</title><g stroke="none" stroke-width="1" fill="#ffdb6e" fill-rule="evenodd"><g transform="translate(-96.000000, -388.000000)" fill="#ffdb6e" fill-rule="nonzero"><path opacity="0.85" d="M120,389 C122.761424,389 125,391.238576 125,394 C125,395.107187 124.640128,396.130322 124.030973,396.958815 L134.275201,407.806993 C135.059041,407.296576 135.994886,407 137,407 C139.761424,407 142,409.238576 142,412 C142,414.761424 139.761424,417 137,417 C135.995308,417 135.059827,416.703673 134.276189,416.19365 L124.030973,427.041185 C124.640128,427.869678 125,428.892813 125,430 C125,432.761424 122.761424,435 120,435 C117.238576,435 115,432.761424 115,430 C115,429.248956 115.165591,428.536587 115.462255,427.897412 L106.499144,421.571555 C105.597343,422.455186 104.362296,423 103,423 C100.238576,423 98,420.761424 98,418 C98,415.238576 100.238576,413 103,413 C104.361798,413 105.596441,413.544416 106.498156,414.427476 L109.938931,411.99997 L106.498156,409.572524 C105.596441,410.455584 104.361798,411 103,411 C100.238576,411 98,408.761424 98,406 C98,403.238576 100.238576,401 103,401 C104.362296,401 105.597343,401.544814 106.499144,402.428445 L115.462255,396.102588 C115.165591,395.463413 115,394.751044 115,394 C115,391.238576 117.238576,389 120,389 Z M120,427 C118.343146,427 117,428.343146 117,430 C117,431.656854 118.343146,433 120,433 C121.656854,433 123,431.656854 123,430 C123,428.343146 121.656854,427 120,427 Z M120,428.5 C120.828427,428.5 121.5,429.171573 121.5,430 C121.5,430.828427 120.828427,431.5 120,431.5 C119.171573,431.5 118.5,430.828427 118.5,430 C118.5,429.171573 119.171573,428.5 120,428.5 Z M111.499931,413.10097 L107.537745,415.897412 C107.834409,416.536587 108,417.248956 108,418 C108,418.750259 107.834755,419.461923 107.538675,420.100582 L116.500856,426.428445 C117.402657,425.544814 118.637704,425 120,425 C121.003847,425 121.938599,425.295829 122.721833,425.805063 L132.967537,414.956788 C132.857128,414.806466 132.754922,414.649744 132.661579,414.487282 L124.938279,417.212125 C124.978903,417.468776 125,417.731924 125,418 C125,420.761424 122.761424,423 120,423 C117.238576,423 115,420.761424 115,418 C115,417.248956 115.165591,416.536587 115.462255,415.897412 L111.499931,413.10097 Z M103,415 C101.343146,415 100,416.343146 100,418 C100,419.656854 101.343146,421 103,421 C104.656854,421 106,419.656854 106,418 C106,416.343146 104.656854,415 103,415 Z M120,415 C118.343146,415 117,416.343146 117,418 C117,419.656854 118.343146,421 120,421 C121.656854,421 123,419.656854 123,418 C123,416.343146 121.656854,415 120,415 Z M120,416.5 C120.828427,416.5 121.5,417.171573 121.5,418 C121.5,418.828427 120.828427,419.5 120,419.5 C119.171573,419.5 118.5,418.828427 118.5,418 C118.5,417.171573 119.171573,416.5 120,416.5 Z M103,416.5 C103.828427,416.5 104.5,417.171573 104.5,418 C104.5,418.828427 103.828427,419.5 103,419.5 C102.171573,419.5 101.5,418.828427 101.5,418 C101.5,417.171573 102.171573,416.5 103,416.5 Z M124.338421,408.487282 C123.475723,409.988796 121.855951,411 120,411 C118.637704,411 117.402657,410.455186 116.500856,409.571555 L113.060931,411.99997 L116.500856,414.428445 C117.402657,413.544814 118.637704,413 120,413 C121.855951,413 123.475723,414.011204 124.338421,415.512718 L132.061721,412.787875 C132.021097,412.531224 132,412.268076 132,412 C132,411.731924 132.021097,411.468776 132.061721,411.212125 L124.338421,408.487282 Z M137,409 C135.343146,409 134,410.343146 134,412 C134,413.656854 135.343146,415 137,415 C138.656854,415 140,413.656854 140,412 C140,410.343146 138.656854,409 137,409 Z M137,410.5 C137.828427,410.5 138.5,411.171573 138.5,412 C138.5,412.828427 137.828427,413.5 137,413.5 C136.171573,413.5 135.5,412.828427 135.5,412 C135.5,411.171573 136.171573,410.5 137,410.5 Z M116.500856,397.571555 L107.537745,403.897412 C107.834409,404.536587 108,405.248956 108,406 C108,406.750259 107.834755,407.461923 107.538675,408.100582 L111.499931,410.89797 L115.461325,408.100582 C115.165245,407.461923 115,406.750259 115,406 C115,403.238576 117.238576,401 120,401 C122.761424,401 125,403.238576 125,406 C125,406.268076 124.978903,406.531224 124.938279,406.787875 L132.661579,409.512718 C132.755132,409.349891 132.857587,409.19283 132.968282,409.042198 L122.722822,398.194294 C121.939386,398.703922 121.004269,399 120,399 C118.637704,399 117.402657,398.455186 116.500856,397.571555 Z M103,403 C101.343146,403 100,404.343146 100,406 C100,407.656854 101.343146,409 103,409 C104.656854,409 106,407.656854 106,406 C106,404.343146 104.656854,403 103,403 Z M120,403 C118.343146,403 117,404.343146 117,406 C117,407.656854 118.343146,409 120,409 C121.656854,409 123,407.656854 123,406 C123,404.343146 121.656854,403 120,403 Z M120,404.5 C120.828427,404.5 121.5,405.171573 121.5,406 C121.5,406.828427 120.828427,407.5 120,407.5 C119.171573,407.5 118.5,406.828427 118.5,406 C118.5,405.171573 119.171573,404.5 120,404.5 Z M103,404.5 C103.828427,404.5 104.5,405.171573 104.5,406 C104.5,406.828427 103.828427,407.5 103,407.5 C102.171573,407.5 101.5,406.828427 101.5,406 C101.5,405.171573 102.171573,404.5 103,404.5 Z M120,391 C118.343146,391 117,392.343146 117,394 C117,395.656854 118.343146,397 120,397 C121.656854,397 123,395.656854 123,394 C123,392.343146 121.656854,391 120,391 Z M120,392.5 C120.828427,392.5 121.5,393.171573 121.5,394 C121.5,394.828427 120.828427,395.5 120,395.5 C119.171573,395.5 118.5,394.828427 118.5,394 C118.5,393.171573 119.171573,392.5 120,392.5 Z"/></g></g><text x="0" y="63" fill="#000000" font-size="5px" font-weight="bold" font-family="'Helvetica Neue', Helvetica, Arial-Unicode, Arial, Sans-serif">Created by Cécile Lanza Parker</text><text x="0" y="68" fill="#ffdb6e" font-size="5px" font-weight="bold" font-family="'Helvetica Neue', Helvetica, Arial-Unicode, Arial, Sans-serif">from the Noun Project</text></svg>